<?xml version="1.0" encoding="utf-8"?>
<!-- Generator: Adobe Illustrator 16.0.0, SVG Export Plug-In . SVG Version: 6.00 Build 0)  -->
<!DOCTYPE svg PUBLIC "-//W3C//DTD SVG 1.1//EN" "http://www.w3.org/Graphics/SVG/1.1/DTD/svg11.dtd">
<svg version="1.1" id="Layer_1" xmlns="http://www.w3.org/2000/svg" xmlns:xlink="http://www.w3.org/1999/xlink" x="0px" y="0px"
	 width="74px" height="80px" viewBox="0 0 74 80" enable-background="new 0 0 74 80" xml:space="preserve">
<path opacity="0.3" fill-rule="evenodd" clip-rule="evenodd" d="M65.361,62.067L54.188,50.895
	c7.613-9.701,6.967-23.763-2.012-32.679c-4.707-4.674-10.966-7.249-17.621-7.249c-6.657,0-12.915,2.575-17.621,7.249
	c-9.717,9.649-9.717,25.351,0,34.999c4.706,4.676,10.964,7.25,17.621,7.25c5.502,0,10.713-1.786,15.019-5.038l11.214,11.215
	c1.396,1.395,3.55,1.502,4.813,0.239C66.863,65.617,66.756,63.463,65.361,62.067z M34.559,53.051c-4.664,0-9.048-1.805-12.345-5.079
	c-6.807-6.76-6.807-17.758,0-24.519c3.297-3.275,7.681-5.078,12.345-5.078c4.662,0,9.047,1.803,12.345,5.078
	c6.807,6.761,6.807,17.759,0,24.519C43.605,51.246,39.221,53.051,34.559,53.051z"/>
<path fill-rule="evenodd" clip-rule="evenodd" fill="#FFFFFF" d="M65.361,60.817L54.188,49.645
	c7.613-9.701,6.967-23.763-2.012-32.679c-4.707-4.674-10.966-7.249-17.621-7.249c-6.657,0-12.915,2.575-17.621,7.249
	c-9.717,9.649-9.717,25.351,0,34.999c4.706,4.676,10.964,7.25,17.621,7.25c5.502,0,10.713-1.786,15.019-5.038l11.214,11.215
	c1.396,1.395,3.55,1.502,4.813,0.239C66.863,64.367,66.756,62.213,65.361,60.817z M34.559,51.801c-4.664,0-9.048-1.805-12.345-5.079
	c-6.807-6.76-6.807-17.758,0-24.519c3.297-3.275,7.681-5.078,12.345-5.078c4.662,0,9.047,1.803,12.345,5.078
	c6.807,6.761,6.807,17.759,0,24.519C43.605,49.996,39.221,51.801,34.559,51.801z"/>
</svg>
