<?xml version="1.0" encoding="utf-8"?>
<!-- Generator: Adobe Illustrator 16.0.0, SVG Export Plug-In . SVG Version: 6.00 Build 0)  -->
<!DOCTYPE svg PUBLIC "-//W3C//DTD SVG 1.1//EN" "http://www.w3.org/Graphics/SVG/1.1/DTD/svg11.dtd">
<svg version="1.1" id="Layer_1" xmlns="http://www.w3.org/2000/svg" xmlns:xlink="http://www.w3.org/1999/xlink" x="0px" y="0px"
	 width="74px" height="80px" viewBox="0 0 74 80" enable-background="new 0 0 74 80" xml:space="preserve">
<path opacity="0.3" fill-rule="evenodd" clip-rule="evenodd" d="M18.528,61.497h-8.017V41.461h8.017V61.497z M29.488,61.497h-8.074
	V30.431h8.074V61.497z M40.51,61.497h-8.096V34.384h8.096V61.497z M51.508,61.499H43.47V25.401h8.038V61.499z M63.494,61.499h-9.017
	V18.491h9.017V61.499z"/>
<path fill-rule="evenodd" clip-rule="evenodd" fill="#FFFFFF" d="M18.528,60.497h-8.017V40.461h8.017V60.497z M29.488,60.497h-8.074
	V29.431h8.074V60.497z M40.51,60.497h-8.096V33.384h8.096V60.497z M51.508,60.499H43.47V24.401h8.038V60.499z M63.494,60.499h-9.017
	V17.491h9.017V60.499z"/>
<path fill-rule="evenodd" clip-rule="evenodd" fill="#3D91ED" d="M51.508,60.499H43.47V24.401h8.038V60.499z M63.494,60.499h-9.017
	V17.491h9.017V60.499z"/>
</svg>
