<?xml version="1.0" encoding="utf-8"?>
<!-- Generator: Adobe Illustrator 16.0.0, SVG Export Plug-In . SVG Version: 6.00 Build 0)  -->
<!DOCTYPE svg PUBLIC "-//W3C//DTD SVG 1.1//EN" "http://www.w3.org/Graphics/SVG/1.1/DTD/svg11.dtd">
<svg version="1.1" id="Layer_1" xmlns="http://www.w3.org/2000/svg" xmlns:xlink="http://www.w3.org/1999/xlink" x="0px" y="0px"
	 width="74px" height="80px" viewBox="0 0 74 80" enable-background="new 0 0 74 80" xml:space="preserve">
<g opacity="0.3">
	<g>
		<path d="M54.534,27.965c0-2.294-1.081-3.54-3.376-3.54H24.183c-2.293,0-3.722,1.246-3.722,3.54V65.35h-2.074v6.059h38.052V65.35
			h-1.905V27.965z M51.37,40.345H23.558V27.5H51.37V40.345z M37.693,22.031c1.332,0,2.412-1.08,2.412-2.412
			c0-1.333-2.412-6.288-2.412-6.288s-2.413,4.955-2.413,6.288C35.281,20.951,36.361,22.031,37.693,22.031z M39.292,8.99
			c0-0.883-0.717-1.599-1.599-1.599c-0.882,0-1.599,0.716-1.599,1.599c0,0.884,0.717,1.6,1.599,1.6
			C38.575,10.59,39.292,9.874,39.292,8.99z M28.653,13.331c0-0.883-0.717-1.599-1.599-1.599c-0.882,0-1.599,0.716-1.599,1.599
			c0,0.883,0.717,1.599,1.599,1.599C27.936,14.93,28.653,14.214,28.653,13.331z M50.361,13.331c0-0.883-0.717-1.599-1.598-1.599
			c-0.884,0-1.601,0.716-1.601,1.599c0,0.883,0.717,1.599,1.601,1.599C49.645,14.93,50.361,14.214,50.361,13.331z M21.961,21.887
			c0-0.883-0.717-1.599-1.599-1.599c-0.882,0-1.599,0.716-1.599,1.599c0,0.884,0.717,1.6,1.599,1.6
			C21.244,23.486,21.961,22.771,21.961,21.887z M55.416,20.288c-0.881,0-1.6,0.716-1.6,1.599c0,0.884,0.719,1.6,1.6,1.6
			c0.883,0,1.6-0.716,1.6-1.6C57.016,21.004,56.299,20.288,55.416,20.288z M62.744,21.378C59.773,10.05,49.509,2.138,37.785,2.138
			h-0.001c-11.731,0.001-21.996,7.917-24.965,19.251c-0.275,1.051,0.355,2.127,1.407,2.402c0.167,0.044,0.334,0.065,0.5,0.065
			c0.873,0,1.67-0.587,1.903-1.471c2.514-9.604,11.214-16.313,21.156-16.313h0.001c9.937,0,18.635,6.704,21.153,16.304
			c0.274,1.053,1.354,1.68,2.402,1.404C62.393,23.505,63.021,22.429,62.744,21.378z"/>
	</g>
</g>
<g>
	<g>
		<path fill="#3D91ED" d="M35.281,18.619c0,1.332,1.08,2.412,2.413,2.412c1.332,0,2.412-1.08,2.412-2.412
			c0-1.333-2.412-6.288-2.412-6.288S35.281,17.286,35.281,18.619z M37.693,9.59c0.882,0,1.599-0.716,1.599-1.6
			c0-0.883-0.717-1.599-1.599-1.599c-0.882,0-1.599,0.716-1.599,1.599C36.094,8.874,36.811,9.59,37.693,9.59z M27.054,10.732
			c-0.882,0-1.599,0.716-1.599,1.599c0,0.883,0.717,1.599,1.599,1.599c0.882,0,1.599-0.716,1.599-1.599
			C28.653,11.448,27.936,10.732,27.054,10.732z M48.764,10.732c-0.883,0-1.6,0.716-1.6,1.599c0,0.883,0.717,1.599,1.6,1.599
			c0.881,0,1.598-0.716,1.598-1.599C50.361,11.448,49.645,10.732,48.764,10.732z M20.362,19.288c-0.882,0-1.599,0.716-1.599,1.599
			c0,0.884,0.717,1.6,1.599,1.6c0.882,0,1.599-0.716,1.599-1.6C21.961,20.004,21.244,19.288,20.362,19.288z M55.416,19.288
			c-0.881,0-1.6,0.716-1.6,1.599c0,0.884,0.719,1.6,1.6,1.6c0.883,0,1.6-0.716,1.6-1.6C57.016,20.004,56.299,19.288,55.416,19.288z"
			/>
	</g>
</g>
<g>
	<g>
		<path fill="#FFFFFF" d="M54.534,26.965c0-2.294-1.081-3.54-3.376-3.54H24.183c-2.293,0-3.722,1.246-3.722,3.54V64.35h-2.074v6.059
			h38.052V64.35h-1.905V26.965z M51.37,39.345H23.558V26.5H51.37V39.345z M62.744,20.378C59.773,9.05,49.509,1.138,37.785,1.138
			h-0.001C26.053,1.139,15.788,9.055,12.819,20.389c-0.275,1.051,0.355,2.127,1.407,2.402c0.167,0.044,0.334,0.065,0.5,0.065
			c0.873,0,1.67-0.587,1.903-1.471c2.514-9.604,11.214-16.313,21.156-16.313h0.001c9.937,0,18.635,6.704,21.153,16.304
			c0.274,1.053,1.354,1.68,2.402,1.404C62.393,22.505,63.021,21.429,62.744,20.378z"/>
	</g>
</g>
<rect x="18.25" y="64.25" fill="#3D91ED" width="38.25" height="6.333"/>
</svg>
