<?xml version="1.0" encoding="utf-8"?>
<!-- Generator: Adobe Illustrator 16.0.0, SVG Export Plug-In . SVG Version: 6.00 Build 0)  -->
<!DOCTYPE svg PUBLIC "-//W3C//DTD SVG 1.1//EN" "http://www.w3.org/Graphics/SVG/1.1/DTD/svg11.dtd">
<svg version="1.1" id="Layer_1" xmlns="http://www.w3.org/2000/svg" xmlns:xlink="http://www.w3.org/1999/xlink" x="0px" y="0px"
	 width="74px" height="80px" viewBox="0 0 74 80" enable-background="new 0 0 74 80" xml:space="preserve">
<g opacity="0.3">
	<g>
		<path fill-rule="evenodd" clip-rule="evenodd" d="M47.856,11.5h-34c-1.657,0-3,1.343-3,3v52c0,1.657,1.343,3,3,3h34
			c1.656,0,3-1.343,3-3v-52C50.856,12.843,49.513,11.5,47.856,11.5z M29.356,14.5h3c0.553,0,1,0.447,1,1s-0.447,1-1,1h-3
			c-0.552,0-1-0.447-1-1S28.804,14.5,29.356,14.5z M33.856,62.5c0,0.552-0.447,1-1,1h-3c-0.552,0-1-0.448-1-1v-3
			c0-0.553,0.448-1,1-1h3c0.553,0,1,0.447,1,1V62.5z M46.856,53.5c0,0.553-0.447,1-1,1h-30c-0.552,0-1-0.447-1-1v-33
			c0-0.553,0.448-1,1-1h30c0.553,0,1,0.447,1,1V53.5z"/>
	</g>
</g>
<g>
	<g>
		<path fill-rule="evenodd" clip-rule="evenodd" fill="#FFFFFF" d="M47.856,10.5h-34c-1.657,0-3,1.343-3,3v52c0,1.657,1.343,3,3,3
			h34c1.656,0,3-1.343,3-3v-52C50.856,11.843,49.513,10.5,47.856,10.5z M29.356,13.5h3c0.553,0,1,0.447,1,1s-0.447,1-1,1h-3
			c-0.552,0-1-0.447-1-1S28.804,13.5,29.356,13.5z M33.856,61.5c0,0.552-0.447,1-1,1h-3c-0.552,0-1-0.448-1-1v-3
			c0-0.553,0.448-1,1-1h3c0.553,0,1,0.447,1,1V61.5z M46.856,52.5c0,0.553-0.447,1-1,1h-30c-0.552,0-1-0.447-1-1v-33
			c0-0.553,0.448-1,1-1h30c0.553,0,1,0.447,1,1V52.5z"/>
	</g>
</g>
<g>
	<path fill-rule="evenodd" clip-rule="evenodd" fill="none" d="M56.823,41.276c-8.284,0-15,6.716-15,15s6.716,15,15,15
		s15-6.716,15-15S65.107,41.276,56.823,41.276z M64.83,62.194l-2.089,2.089l-5.651-5.651l-6.277,6.276l-2.121-2.121l6.276-6.277
		l-6.151-6.151l2.089-2.089l6.151,6.151l5.776-5.776l2.122,2.121l-5.776,5.776L64.83,62.194z"/>
</g>
<circle fill-rule="evenodd" clip-rule="evenodd" fill="#3A444D" cx="56.107" cy="56.83" r="17.938"/>
<g opacity="0.3">
	<path fill-rule="evenodd" clip-rule="evenodd" d="M56.107,42.83c-8.284,0-15,6.716-15,15s6.716,15,15,15s15-6.716,15-15
		S64.392,42.83,56.107,42.83z M64.114,63.748l-2.089,2.089l-5.651-5.651l-6.277,6.276l-2.121-2.121l6.276-6.277l-6.151-6.151
		l2.089-2.089l6.151,6.151l5.776-5.776l2.122,2.121l-5.776,5.776L64.114,63.748z"/>
</g>
<g>
	<path fill-rule="evenodd" clip-rule="evenodd" fill="#3D91ED" d="M56.107,41.83c-8.285,0-15,6.715-15,15c0,8.283,6.715,15,15,15
		c8.283,0,15-6.717,15-15C71.107,48.545,64.391,41.83,56.107,41.83z M64.113,62.748l-2.088,2.088l-5.652-5.65l-6.277,6.275
		l-2.121-2.121l6.277-6.277l-6.152-6.15l2.09-2.09l6.15,6.152l5.777-5.777l2.121,2.121l-5.775,5.777L64.113,62.748z"/>
</g>
</svg>
