<?xml version="1.0" encoding="utf-8"?>
<!-- Generator: Adobe Illustrator 16.0.0, SVG Export Plug-In . SVG Version: 6.00 Build 0)  -->
<!DOCTYPE svg PUBLIC "-//W3C//DTD SVG 1.1//EN" "http://www.w3.org/Graphics/SVG/1.1/DTD/svg11.dtd">
<svg version="1.1" id="Layer_1" xmlns="http://www.w3.org/2000/svg" xmlns:xlink="http://www.w3.org/1999/xlink" x="0px" y="0px"
	 width="74px" height="80px" viewBox="0 0 74 80" enable-background="new 0 0 74 80" xml:space="preserve">
<g opacity="0.3">
	<g>
		<path d="M69.646,54.02c0.646,1.512,0.865,2.486,0.865,3.874v14.341c0,0.549-0.426,1.071-1.071,1.071h-5.604
			c-0.645,0-1.07-0.426-1.07-1.071v-3.558H32.887v3.558c0,0.549-0.426,1.071-1.072,1.071h-5.632c-0.645,0-1.071-0.426-1.071-1.071
			V57.894c0-1.415,0.206-2.486,0.865-3.874l7.006-14.656c0.755-1.73,2.912-3.118,4.848-3.118h19.836
			c1.938,0,4.107,1.415,4.973,3.118L69.646,54.02z M31.361,53.388h32.763l-4.739-10.124c-0.976-1.937-1.827-2.376-3.874-2.376
			H39.232c-1.511,0.206-2.266,0.756-3.008,2.376L31.361,53.388z M35.895,60.71c0-1.938-1.622-3.448-3.558-3.448
			s-3.448,1.511-3.448,3.448c0,1.937,1.511,3.557,3.448,3.557S35.895,62.66,35.895,60.71L35.895,60.71z M66.72,60.71
			c0-1.938-1.621-3.448-3.558-3.448s-3.448,1.511-3.448,3.448c0,1.937,1.512,3.557,3.448,3.557
			C65.099,64.281,66.72,62.66,66.72,60.71L66.72,60.71z"/>
	</g>
</g>
<g>
	<defs>
		<polygon id="SVGID_1_" points="29.5,51.438 36.875,38.188 45,37.25 44.875,2.063 1.125,1.813 2.75,48.438 15.875,51.875 		"/>
	</defs>
	<clipPath id="SVGID_2_">
		<use xlink:href="#SVGID_1_"  overflow="visible"/>
	</clipPath>
	<path opacity="0.3" clip-path="url(#SVGID_2_)" fill-rule="evenodd" clip-rule="evenodd" d="M42.173,38.293
		c-3.947,10.199-15.223,15.189-25.185,11.15C7.026,45.402,2.15,33.858,6.098,23.66c2.944-7.607,9.968-12.309,17.481-12.533
		l-4.944-4.529l2.587-2.961c2.862,2.623,9.761,8.942,9.761,8.942s-4.547,5.201-8.819,10.089l-2.83-2.721l4.565-5.221
		c-6.23,0.097-12.085,3.965-14.523,10.264c-3.229,8.345,0.76,17.789,8.911,21.096c8.15,3.305,17.376-0.779,20.605-9.123
		c2.957-7.641-0.139-16.203-6.939-20.131c0.029-0.037,1.338-3.369,1.477-3.292C41.924,18.271,45.825,28.857,42.173,38.293z"/>
</g>
<g>
	<defs>
		<polygon id="SVGID_3_" points="29.5,49.625 36.875,36.375 45,35.438 44.875,0.25 1.125,0 2.75,46.625 15.875,50.063 		"/>
	</defs>
	<clipPath id="SVGID_4_">
		<use xlink:href="#SVGID_3_"  overflow="visible"/>
	</clipPath>
	<path clip-path="url(#SVGID_4_)" fill-rule="evenodd" clip-rule="evenodd" fill="#3D91ED" d="M42.173,37.23
		C38.226,47.43,26.95,52.42,16.988,48.381C7.026,44.34,2.15,32.796,6.098,22.598c2.944-7.607,9.968-12.309,17.481-12.533
		l-4.944-4.529l2.587-2.961c2.862,2.623,9.761,8.942,9.761,8.942s-4.547,5.201-8.819,10.089l-2.83-2.721l4.565-5.221
		c-6.23,0.097-12.085,3.965-14.523,10.264c-3.229,8.345,0.76,17.789,8.911,21.096c8.15,3.305,17.376-0.779,20.605-9.123
		c2.957-7.641-0.139-16.203-6.939-20.131c0.029-0.037,1.338-3.369,1.477-3.292C41.924,17.209,45.825,27.795,42.173,37.23z"/>
</g>
<g>
	<g>
		<path fill="#FFFFFF" d="M69.646,53.02c0.646,1.512,0.865,2.486,0.865,3.874v14.341c0,0.549-0.426,1.071-1.071,1.071h-5.604
			c-0.645,0-1.07-0.426-1.07-1.071v-3.558H32.887v3.558c0,0.549-0.426,1.071-1.072,1.071h-5.632c-0.645,0-1.071-0.426-1.071-1.071
			V56.894c0-1.415,0.206-2.486,0.865-3.874l7.006-14.656c0.755-1.73,2.912-3.118,4.848-3.118h19.836
			c1.938,0,4.107,1.415,4.973,3.118L69.646,53.02z M31.361,52.388h32.763l-4.739-10.124c-0.976-1.937-1.827-2.376-3.874-2.376
			H39.232c-1.511,0.206-2.266,0.756-3.008,2.376L31.361,52.388z M35.895,59.71c0-1.938-1.622-3.448-3.558-3.448
			s-3.448,1.511-3.448,3.448c0,1.937,1.511,3.557,3.448,3.557S35.895,61.66,35.895,59.71L35.895,59.71z M66.72,59.71
			c0-1.938-1.621-3.448-3.558-3.448s-3.448,1.511-3.448,3.448c0,1.937,1.512,3.557,3.448,3.557
			C65.099,63.281,66.72,61.66,66.72,59.71L66.72,59.71z"/>
	</g>
</g>
</svg>
