<?xml version="1.0" encoding="utf-8"?>
<!-- Generator: Adobe Illustrator 16.0.0, SVG Export Plug-In . SVG Version: 6.00 Build 0)  -->
<!DOCTYPE svg PUBLIC "-//W3C//DTD SVG 1.1//EN" "http://www.w3.org/Graphics/SVG/1.1/DTD/svg11.dtd">
<svg version="1.1" id="Layer_1" xmlns="http://www.w3.org/2000/svg" xmlns:xlink="http://www.w3.org/1999/xlink" x="0px" y="0px"
	 width="74px" height="80px" viewBox="0 0 74 80" enable-background="new 0 0 74 80" xml:space="preserve">
<g opacity="0.3">
	<g>
		<path d="M37,27.463c2.076,0,4.034,0.476,5.791,1.3l7.105-12.122C46.044,14.638,41.66,13.491,37,13.491
			c-4.35,0-8.449,1.017-12.112,2.777l7.12,12.145C33.553,27.807,35.234,27.463,37,27.463z M29.348,29.812L22.254,17.71
			C14.891,22.29,9.893,30.182,9.395,39.273h14.199C24.036,35.349,26.21,31.943,29.348,29.812z M50.407,39.273h14.198
			c-0.481-8.789-5.152-16.478-12.118-21.117l-7.135,12.171C48.11,32.472,49.998,35.648,50.407,39.273z M23.594,42.242H9.395
			c0.498,9.09,5.495,16.98,12.858,21.561l7.093-12.102C26.21,49.568,24.036,46.164,23.594,42.242z M37,54.051
			c-1.766,0-3.447-0.344-4.992-0.951l-7.12,12.145C28.55,67.006,32.65,68.021,37,68.021c4.661,0,9.045-1.145,12.897-3.148
			L42.792,52.75C41.036,53.576,39.076,54.051,37,54.051z M45.354,51.186l7.135,12.172c6.965-4.639,11.635-12.328,12.116-21.115
			H50.407C49.998,45.863,48.111,49.039,45.354,51.186z"/>
	</g>
</g>
<g>
	<g>
		<path fill="#FFFFFF" d="M37,26.536c2.076,0,4.034,0.476,5.791,1.3l7.105-12.122C46.044,13.71,41.66,12.564,37,12.564
			c-4.35,0-8.449,1.017-12.112,2.777l7.12,12.145C33.553,26.879,35.234,26.536,37,26.536z M29.348,28.884l-7.094-12.102
			c-7.363,4.58-12.361,12.472-12.859,21.563h14.199C24.036,34.422,26.21,31.016,29.348,28.884z M50.407,38.346h14.198
			c-0.481-8.789-5.152-16.478-12.118-21.117L45.353,29.4C48.11,31.545,49.998,34.721,50.407,38.346z M23.594,41.314H9.395
			c0.498,9.09,5.495,16.98,12.858,21.561l7.093-12.102C26.21,48.641,24.036,45.236,23.594,41.314z M37,53.123
			c-1.766,0-3.447-0.344-4.992-0.951l-7.12,12.145C28.55,66.078,32.65,67.094,37,67.094c4.661,0,9.045-1.145,12.897-3.148
			l-7.105-12.123C41.036,52.648,39.076,53.123,37,53.123z M45.354,50.258l7.135,12.172c6.965-4.639,11.635-12.328,12.116-21.115
			H50.407C49.998,44.936,48.111,48.111,45.354,50.258z"/>
	</g>
</g>
<g>
	<path fill="#3D91ED" d="M35.729,21.065c-0.276,0-0.5-0.224-0.5-0.5V8.856l-2.265,2.266c-0.098,0.098-0.226,0.146-0.354,0.146
		s-0.256-0.049-0.354-0.146l-2.081-2.08c-0.094-0.094-0.146-0.221-0.146-0.354c0-0.132,0.053-0.26,0.146-0.354l6.67-6.672
		c0.094-0.094,0.221-0.146,0.354-0.146s0.26,0.053,0.354,0.146l6.671,6.672c0.195,0.195,0.195,0.512,0,0.707l-2.08,2.08
		c-0.098,0.098-0.226,0.146-0.354,0.146s-0.256-0.049-0.354-0.146l-2.266-2.266v11.709c0,0.276-0.224,0.5-0.5,0.5H35.729z"/>
	<path fill="#2E363E" d="M37.2,2.016l6.671,6.672l-2.08,2.08l-3.119-3.119v12.916h-2.943V7.649l-3.119,3.119l-2.081-2.08L37.2,2.016
		 M37.2,1.016c-0.265,0-0.52,0.105-0.707,0.293l-6.67,6.672c-0.188,0.188-0.293,0.442-0.293,0.707s0.105,0.52,0.293,0.707
		l2.081,2.08c0.195,0.195,0.451,0.293,0.707,0.293s0.512-0.098,0.707-0.293l1.412-1.412v10.501c0,0.552,0.448,1,1,1h2.943
		c0.553,0,1-0.448,1-1V10.063l1.412,1.412c0.188,0.188,0.441,0.293,0.707,0.293s0.52-0.105,0.707-0.293l2.08-2.08
		c0.391-0.391,0.391-1.023,0-1.414l-6.671-6.672C37.72,1.122,37.465,1.016,37.2,1.016L37.2,1.016z"/>
</g>
<g>
	<path fill="#3D91ED" d="M37,78.428c-0.133,0-0.26-0.053-0.354-0.146l-6.671-6.672c-0.094-0.094-0.146-0.221-0.146-0.354
		s0.053-0.26,0.146-0.354l2.081-2.08c0.098-0.098,0.226-0.146,0.354-0.146s0.256,0.049,0.354,0.146l2.245,2.244l-0.049-11.186
		c0-0.133,0.052-0.261,0.146-0.354c0.094-0.095,0.222-0.147,0.354-0.147h3c0.276,0,0.5,0.224,0.5,0.5l0.01,11.213l2.269-2.27
		c0.098-0.098,0.226-0.146,0.354-0.146s0.256,0.049,0.354,0.146l2.081,2.08c0.094,0.094,0.146,0.221,0.146,0.354
		s-0.053,0.26-0.146,0.354l-6.671,6.672C37.26,78.375,37.133,78.428,37,78.428z"/>
	<path fill="#2E363E" d="M38.458,59.879l0.011,12.419l3.121-3.122l2.081,2.08L37,77.928l-6.671-6.672l2.081-2.08l3.104,3.104
		l-0.055-12.4H38.458 M38.458,58.879h-3c-0.266,0-0.521,0.106-0.708,0.295c-0.188,0.188-0.292,0.443-0.292,0.71l0.044,9.971
		l-1.386-1.386c-0.195-0.195-0.451-0.293-0.707-0.293s-0.512,0.098-0.707,0.293l-2.081,2.08c-0.188,0.188-0.293,0.441-0.293,0.707
		s0.105,0.52,0.293,0.707l6.671,6.672c0.188,0.188,0.442,0.293,0.707,0.293s0.52-0.105,0.707-0.293l6.671-6.672
		c0.188-0.188,0.293-0.442,0.293-0.707c0-0.266-0.105-0.52-0.293-0.707l-2.081-2.08c-0.195-0.195-0.451-0.293-0.707-0.293
		s-0.512,0.098-0.707,0.293l-1.416,1.416l-0.009-10.007C39.458,59.326,39.01,58.879,38.458,58.879L38.458,58.879z"/>
</g>
</svg>
