<?xml version="1.0" encoding="utf-8"?>
<!-- Generator: Adobe Illustrator 16.0.0, SVG Export Plug-In . SVG Version: 6.00 Build 0)  -->
<!DOCTYPE svg PUBLIC "-//W3C//DTD SVG 1.1//EN" "http://www.w3.org/Graphics/SVG/1.1/DTD/svg11.dtd">
<svg version="1.1" id="Layer_1" xmlns="http://www.w3.org/2000/svg" xmlns:xlink="http://www.w3.org/1999/xlink" x="0px" y="0px"
	 width="74px" height="80px" viewBox="0 0 74 80" enable-background="new 0 0 74 80" xml:space="preserve">
<path opacity="0.3" d="M31.608,33.274c1.149,0,2.227-0.711,2.643-1.854c0.529-1.459-0.225-3.07-1.685-3.6l-5.286-1.917
	c2.874-2.094,6.401-3.338,10.22-3.338c8.554,0,15.672,6.2,17.136,14.34l7.005,2.474C61.313,26.337,50.621,15.821,37.5,15.821
	c-4.674,0-9.035,1.341-12.734,3.65l1.607-4.432c0.529-1.459-0.225-3.07-1.684-3.6c-1.457-0.528-3.071,0.225-3.601,1.684
	l-5.292,14.595l14.854,5.387C30.965,33.22,31.289,33.274,31.608,33.274z M41.514,48.601c-0.525,1.461,0.232,3.071,1.693,3.597
	l4.738,1.706C45.031,56.1,41.423,57.42,37.5,57.42c-8.554,0-15.672-6.2-17.136-14.34l-7.005-2.474
	C13.688,53.649,24.378,64.165,37.5,64.165c5.121,0,9.869-1.609,13.779-4.341l-1.849,5.138c-0.526,1.46,0.232,3.07,1.692,3.596
	c0.315,0.113,0.637,0.167,0.952,0.167c1.151,0,2.231-0.713,2.646-1.859l5.256-14.606L45.11,46.908
	C43.652,46.381,42.039,47.141,41.514,48.601z"/>
<path fill="#FFFFFF" d="M41.514,47.601c-0.525,1.461,0.232,3.071,1.693,3.597l4.738,1.706C45.031,55.1,41.423,56.42,37.5,56.42
	c-8.554,0-15.672-6.2-17.136-14.34l-7.005-2.474C13.688,52.649,24.378,63.165,37.5,63.165c5.121,0,9.869-1.609,13.779-4.341
	l-1.849,5.138c-0.526,1.46,0.232,3.07,1.692,3.596c0.315,0.113,0.637,0.167,0.952,0.167c1.151,0,2.231-0.713,2.646-1.859
	l5.256-14.606L45.11,45.908C43.652,45.381,42.039,46.141,41.514,47.601z"/>
<path fill="#3D91ED" d="M31.608,32.274c1.149,0,2.227-0.711,2.643-1.854c0.529-1.459-0.225-3.07-1.685-3.6l-5.286-1.917
	c2.874-2.094,6.401-3.338,10.22-3.338c8.554,0,15.672,6.2,17.136,14.34l7.005,2.474C61.313,25.337,50.621,14.821,37.5,14.821
	c-4.674,0-9.035,1.341-12.734,3.65l1.607-4.432c0.529-1.459-0.225-3.07-1.684-3.6c-1.457-0.528-3.071,0.225-3.601,1.684
	l-5.292,14.595l14.854,5.387C30.965,32.22,31.289,32.274,31.608,32.274z"/>
</svg>
