<?xml version="1.0" encoding="utf-8"?>
<!-- Generator: Adobe Illustrator 16.0.0, SVG Export Plug-In . SVG Version: 6.00 Build 0)  -->
<!DOCTYPE svg PUBLIC "-//W3C//DTD SVG 1.1//EN" "http://www.w3.org/Graphics/SVG/1.1/DTD/svg11.dtd">
<svg version="1.1" id="Layer_1" xmlns="http://www.w3.org/2000/svg" xmlns:xlink="http://www.w3.org/1999/xlink" x="0px" y="0px"
	 width="74px" height="80px" viewBox="0 0 74 80" enable-background="new 0 0 74 80" xml:space="preserve">
<g opacity="0.3">
	<g>
		<path d="M56.509,20.659c-1.348-1.348-3.532-1.348-4.88,0c-1.349,1.347-1.349,3.533,0,4.88c7.774,7.774,7.774,20.426,0,28.2
			c-7.776,7.774-20.428,7.775-28.201,0.001c-7.775-7.775-7.775-20.427,0-28.202c1.348-1.347,1.348-3.533,0-4.88
			c-1.349-1.349-3.532-1.349-4.881,0c-5.07,5.07-7.862,11.811-7.862,18.98c0,7.171,2.792,13.912,7.862,18.982
			c5.232,5.232,12.106,7.849,18.98,7.85c6.874,0,13.747-2.617,18.981-7.852c5.07-5.069,7.862-11.811,7.862-18.98
			S61.579,25.729,56.509,20.659z M37.494,36.3c1.813,0,3.282-1.466,3.282-3.275V15.888c0-1.81-1.469-3.275-3.282-3.275
			s-3.282,1.466-3.282,3.275v17.137C34.212,34.834,35.681,36.3,37.494,36.3z"/>
	</g>
</g>
<g>
	<g>
		<path fill="#3D91ED" d="M37.494,11.612c-1.813,0-3.282,1.466-3.282,3.275v17.137c0,1.81,1.469,3.275,3.282,3.275
			s3.282-1.466,3.282-3.275V14.888C40.776,13.078,39.308,11.612,37.494,11.612z"/>
	</g>
</g>
<g>
	<g>
		<path fill="#FFFFFF" d="M56.509,19.659c-1.348-1.348-3.532-1.348-4.88,0c-1.349,1.347-1.349,3.533,0,4.88
			c7.774,7.774,7.774,20.426,0,28.2c-7.776,7.774-20.428,7.775-28.201,0.001c-7.775-7.775-7.775-20.427,0-28.202
			c1.348-1.347,1.348-3.533,0-4.88c-1.349-1.349-3.532-1.349-4.881,0c-5.07,5.07-7.862,11.811-7.862,18.98
			c0,7.171,2.792,13.912,7.862,18.982c5.232,5.232,12.106,7.849,18.98,7.85c6.874,0,13.747-2.617,18.981-7.852
			c5.07-5.069,7.862-11.811,7.862-18.98S61.579,24.729,56.509,19.659z"/>
	</g>
</g>
</svg>
