<?xml version="1.0" encoding="utf-8"?>
<!-- Generator: Adobe Illustrator 16.0.0, SVG Export Plug-In . SVG Version: 6.00 Build 0)  -->
<!DOCTYPE svg PUBLIC "-//W3C//DTD SVG 1.1//EN" "http://www.w3.org/Graphics/SVG/1.1/DTD/svg11.dtd">
<svg version="1.1" id="Layer_1" xmlns="http://www.w3.org/2000/svg" xmlns:xlink="http://www.w3.org/1999/xlink" x="0px" y="0px"
	 width="74px" height="80px" viewBox="0 0 74 80" enable-background="new 0 0 74 80" xml:space="preserve">
<g opacity="0.3">
	<g>
		<path fill-rule="evenodd" clip-rule="evenodd" d="M73.701,70.139c-0.678-1.19-14.362-24.964-15.533-26.993
			c-0.769-1.333-2.602-1.311-3.372,0c-0.858,1.46-14.612,25.325-15.567,27.054c-0.701,1.266,0.073,2.926,1.667,2.926h31.128
			C73.471,73.125,74.548,71.623,73.701,70.139z M57.96,70.124h-4v-4h4V70.124z M57.96,64.124h-4v-11h4V64.124z"/>
	</g>
</g>
<g>
	<g>
		<path fill-rule="evenodd" clip-rule="evenodd" fill="#3D91ED" d="M73.701,69.139c-0.678-1.19-14.362-24.964-15.533-26.993
			c-0.769-1.333-2.602-1.311-3.372,0c-0.858,1.46-14.612,25.325-15.567,27.054c-0.701,1.266,0.073,2.926,1.667,2.926h31.128
			C73.471,72.125,74.548,70.623,73.701,69.139z M57.96,69.124h-4v-4h4V69.124z M57.96,63.124h-4v-11h4V63.124z"/>
	</g>
</g>
<g>
	<defs>
		<polygon id="SVGID_1_" points="35,70.625 52.75,40.75 52.75,8 9.5,8 9.5,70.125 		"/>
	</defs>
	<clipPath id="SVGID_2_">
		<use xlink:href="#SVGID_1_"  overflow="visible"/>
	</clipPath>
	<g opacity="0.3" clip-path="url(#SVGID_2_)">
		<g>
			<path fill-rule="evenodd" clip-rule="evenodd" d="M48.102,11.5h-34c-1.657,0-3,1.343-3,3v52c0,1.657,1.343,3,3,3h34
				c1.656,0,3-1.343,3-3v-52C51.102,12.843,49.758,11.5,48.102,11.5z M29.602,14.5h3c0.553,0,1,0.447,1,1s-0.447,1-1,1h-3
				c-0.552,0-1-0.447-1-1S29.049,14.5,29.602,14.5z M34.102,62.5c0,0.552-0.447,1-1,1h-3c-0.552,0-1-0.448-1-1v-3
				c0-0.553,0.448-1,1-1h3c0.553,0,1,0.447,1,1V62.5z M47.102,53.5c0,0.553-0.447,1-1,1h-30c-0.552,0-1-0.447-1-1v-33
				c0-0.553,0.448-1,1-1h30c0.553,0,1,0.447,1,1V53.5z"/>
		</g>
	</g>
	<g clip-path="url(#SVGID_2_)">
		<g>
			<path fill-rule="evenodd" clip-rule="evenodd" fill="#FFFFFF" d="M48.102,10.5h-34c-1.657,0-3,1.343-3,3v52c0,1.657,1.343,3,3,3
				h34c1.656,0,3-1.343,3-3v-52C51.102,11.843,49.758,10.5,48.102,10.5z M29.602,13.5h3c0.553,0,1,0.447,1,1s-0.447,1-1,1h-3
				c-0.552,0-1-0.447-1-1S29.049,13.5,29.602,13.5z M34.102,61.5c0,0.552-0.447,1-1,1h-3c-0.552,0-1-0.448-1-1v-3
				c0-0.553,0.448-1,1-1h3c0.553,0,1,0.447,1,1V61.5z M47.102,52.5c0,0.553-0.447,1-1,1h-30c-0.552,0-1-0.447-1-1v-33
				c0-0.553,0.448-1,1-1h30c0.553,0,1,0.447,1,1V52.5z"/>
		</g>
	</g>
</g>
</svg>
