<?xml version="1.0" encoding="utf-8"?>
<!-- Generator: Adobe Illustrator 16.0.0, SVG Export Plug-In . SVG Version: 6.00 Build 0)  -->
<!DOCTYPE svg PUBLIC "-//W3C//DTD SVG 1.1//EN" "http://www.w3.org/Graphics/SVG/1.1/DTD/svg11.dtd">
<svg version="1.1" id="Layer_1" xmlns="http://www.w3.org/2000/svg" xmlns:xlink="http://www.w3.org/1999/xlink" x="0px" y="0px"
	 width="74px" height="80px" viewBox="0 0 74 80" enable-background="new 0 0 74 80" xml:space="preserve">
<path opacity="0.3" fill-rule="evenodd" clip-rule="evenodd" d="M49.598,31.067H24.614v5.073h24.983V31.067z M42.637,50.091v-5.074
	h-18.02v5.074H42.637z M46.627,12.998H27.673v8.075h18.954V12.998z M49.58,15.034v4.999l7.929-0.026v42.051H16.669V20.141
	l7.88-0.026v-5.082H11.601l-0.135,51.948h51.06l0.01-51.948H49.58z"/>
<path fill-rule="evenodd" clip-rule="evenodd" fill="#FFFFFF" d="M49.598,30.203H24.614v5.073h24.983V30.203z M42.637,49.227v-5.074
	h-18.02v5.074H42.637z M49.58,14.169v4.999l7.929-0.026v42.051H16.669V19.277l7.88-0.026v-5.082H11.601l-0.135,51.948h51.06
	l0.01-51.948H49.58z"/>
<rect x="27.656" y="12.271" fill-rule="evenodd" clip-rule="evenodd" fill="#3D91ED" width="18.969" height="8.094"/>
</svg>
