<?xml version="1.0" encoding="utf-8"?>
<!-- Generator: Adobe Illustrator 16.0.0, SVG Export Plug-In . SVG Version: 6.00 Build 0)  -->
<!DOCTYPE svg PUBLIC "-//W3C//DTD SVG 1.1//EN" "http://www.w3.org/Graphics/SVG/1.1/DTD/svg11.dtd">
<svg version="1.1" id="Layer_1" xmlns="http://www.w3.org/2000/svg" xmlns:xlink="http://www.w3.org/1999/xlink" x="0px" y="0px"
	 width="74px" height="80px" viewBox="0 0 74 80" enable-background="new 0 0 74 80" xml:space="preserve">
<path opacity="0.3" d="M55.534,60.433V18.049c0-2.294-1.081-3.54-3.376-3.54H22.183c-2.293,0-3.722,1.246-3.722,3.54v42.384h-2.074
	v6.059h41.052v-6.059H55.534z M52.37,17.584v14.845H21.558V17.584H52.37z"/>
<path opacity="0.3" fill-rule="evenodd" clip-rule="evenodd" d="M71.205,29.023L60.4,17.875c-0.572-0.591-1.5-0.591-2.073,0
	c-0.572,0.591-0.572,1.549,0,2.14l6,6.191c-0.267,0.339-0.432,0.762-0.432,1.227v4c0,1.104,0.231,2.053,1,3l4,5
	c0.308,0.445,0.672,0.578,1.005,0.562v7.469c-0.002,0-0.003-0.002-0.005-0.004v11.473c0,1.932-1.566,3.5-3.5,3.5s-3.5-1.568-3.5-3.5
	v-12c0-4.143-3.358-7.5-7.5-7.5c-0.514,0-1.015,0.052-1.5,0.15v3.416c0.591-0.35,1.268-0.566,2-0.566c2.209,0,4,1.828,4,4.082
	v13.418c0,3.59,2.91,6.5,6.5,6.5s6.5-2.91,6.5-6.5V33.563C72.699,31.647,71.923,30.09,71.205,29.023z"/>
<path fill="#FFFFFF" d="M55.534,59.433V17.049c0-2.294-1.081-3.54-3.376-3.54H22.183c-2.293,0-3.722,1.246-3.722,3.54v42.384h-2.074
	v6.059h41.052v-6.059H55.534z M52.37,16.584v14.845H21.558V16.584H52.37z"/>
<path fill-rule="evenodd" clip-rule="evenodd" fill="#FFFFFF" d="M71.205,28.023L60.4,16.875c-0.572-0.591-1.5-0.591-2.073,0
	c-0.572,0.591-0.572,1.549,0,2.14l6,6.191c-0.267,0.339-0.432,0.762-0.432,1.227v4c0,1.104,0.231,2.053,1,3l4,5
	c0.308,0.445,0.672,0.578,1.005,0.562v7.469c-0.002,0-0.003-0.002-0.005-0.004v11.473c0,1.932-1.566,3.5-3.5,3.5s-3.5-1.568-3.5-3.5
	v-12c0-4.143-3.358-7.5-7.5-7.5c-0.514,0-1.015,0.052-1.5,0.15v3.416c0.591-0.35,1.268-0.566,2-0.566c2.209,0,4,1.828,4,4.082
	v13.418c0,3.59,2.91,6.5,6.5,6.5s6.5-2.91,6.5-6.5V32.563C72.699,30.647,71.923,29.09,71.205,28.023z"/>
<rect x="16.254" y="59.238" fill-rule="evenodd" clip-rule="evenodd" fill="#3D91ED" width="41.385" height="6.28"/>
<path fill-rule="evenodd" clip-rule="evenodd" fill="#3D91ED" d="M37,37.056c-0.047,0,5.5,7.13,5.5,10.285
	c0,3.156-2.463,5.715-5.5,5.715c-3.038,0-5.5-2.559-5.5-5.715C31.5,44.186,37.056,37.056,37,37.056z"/>
</svg>
