<?xml version="1.0" encoding="utf-8"?>
<!-- Generator: Adobe Illustrator 16.0.0, SVG Export Plug-In . SVG Version: 6.00 Build 0)  -->
<!DOCTYPE svg PUBLIC "-//W3C//DTD SVG 1.1//EN" "http://www.w3.org/Graphics/SVG/1.1/DTD/svg11.dtd">
<svg version="1.1" id="Layer_1" xmlns="http://www.w3.org/2000/svg" xmlns:xlink="http://www.w3.org/1999/xlink" x="0px" y="0px"
	 width="74px" height="80px" viewBox="0 0 74 80" enable-background="new 0 0 74 80" xml:space="preserve">
<g opacity="0.3">
	<g>
		<path d="M58.835,51.124c0.646,1.512,0.865,2.486,0.865,3.874v14.341c0,0.549-0.426,1.071-1.071,1.071h-5.604
			c-0.645,0-1.07-0.426-1.07-1.071v-3.558H22.076v3.558c0,0.549-0.426,1.071-1.072,1.071h-5.632c-0.645,0-1.071-0.426-1.071-1.071
			V54.998c0-1.415,0.206-2.486,0.865-3.874l7.006-14.656c0.755-1.73,2.912-3.118,4.848-3.118h19.836
			c1.938,0,4.107,1.415,4.973,3.118L58.835,51.124z M20.551,50.492h32.763l-4.739-10.124c-0.976-1.937-1.827-2.376-3.874-2.376
			H28.422c-1.511,0.206-2.266,0.756-3.008,2.376L20.551,50.492z M25.084,57.814c0-1.938-1.622-3.448-3.558-3.448
			s-3.448,1.511-3.448,3.448c0,1.937,1.511,3.557,3.448,3.557S25.084,59.765,25.084,57.814L25.084,57.814z M55.909,57.814
			c0-1.938-1.621-3.448-3.558-3.448s-3.448,1.511-3.448,3.448c0,1.937,1.512,3.557,3.448,3.557
			C54.288,61.386,55.909,59.765,55.909,57.814L55.909,57.814z"/>
	</g>
</g>
<g opacity="0.3">
	<g>
		<path d="M34.5,24.953c0,1.332,1.08,2.412,2.412,2.412s2.412-1.08,2.412-2.412c0-1.333-2.412-6.288-2.412-6.288
			S34.5,23.62,34.5,24.953z M38.511,14.324c0-0.883-0.717-1.599-1.599-1.599c-0.883,0-1.6,0.716-1.6,1.599
			c0,0.884,0.717,1.6,1.6,1.6C37.794,15.924,38.511,15.208,38.511,14.324z M26.272,17.066c-0.882,0-1.599,0.716-1.599,1.599
			s0.717,1.599,1.599,1.599s1.599-0.716,1.599-1.599S27.154,17.066,26.272,17.066z M47.981,17.066c-0.882,0-1.599,0.716-1.599,1.599
			s0.717,1.599,1.599,1.599c0.883,0,1.6-0.716,1.6-1.599S48.864,17.066,47.981,17.066z M19.581,25.622c-0.883,0-1.6,0.716-1.6,1.599
			c0,0.884,0.717,1.6,1.6,1.6c0.882,0,1.599-0.716,1.599-1.6C21.18,26.338,20.463,25.622,19.581,25.622z M54.635,25.622
			c-0.882,0-1.599,0.716-1.599,1.599c0,0.884,0.717,1.6,1.599,1.6c0.883,0,1.6-0.716,1.6-1.6
			C56.234,26.338,55.518,25.622,54.635,25.622z M61.963,26.712c-2.971-11.328-13.235-19.24-24.959-19.24h-0.002
			c-11.73,0.001-21.995,7.917-24.965,19.251c-0.274,1.051,0.356,2.127,1.407,2.402c0.167,0.044,0.334,0.065,0.499,0.065
			c0.873,0,1.671-0.587,1.903-1.471c2.514-9.604,11.214-16.312,21.155-16.313h0.002c9.937,0,18.635,6.704,21.154,16.304
			c0.274,1.053,1.353,1.68,2.402,1.404C61.611,28.839,62.24,27.763,61.963,26.712z"/>
	</g>
</g>
<g>
	<g>
		<path fill="#FFFFFF" d="M58.835,50.124c0.646,1.512,0.865,2.486,0.865,3.874v14.341c0,0.549-0.426,1.071-1.071,1.071h-5.604
			c-0.645,0-1.07-0.426-1.07-1.071v-3.558H22.076v3.558c0,0.549-0.426,1.071-1.072,1.071h-5.632c-0.645,0-1.071-0.426-1.071-1.071
			V53.998c0-1.415,0.206-2.486,0.865-3.874l7.006-14.656c0.755-1.73,2.912-3.118,4.848-3.118h19.836
			c1.938,0,4.107,1.415,4.973,3.118L58.835,50.124z M20.551,49.492h32.763l-4.739-10.124c-0.976-1.937-1.827-2.376-3.874-2.376
			H28.422c-1.511,0.206-2.266,0.756-3.008,2.376L20.551,49.492z M25.084,56.814c0-1.938-1.622-3.448-3.558-3.448
			s-3.448,1.511-3.448,3.448c0,1.937,1.511,3.557,3.448,3.557S25.084,58.765,25.084,56.814L25.084,56.814z M55.909,56.814
			c0-1.938-1.621-3.448-3.558-3.448s-3.448,1.511-3.448,3.448c0,1.937,1.512,3.557,3.448,3.557
			C54.288,60.386,55.909,58.765,55.909,56.814L55.909,56.814z"/>
	</g>
</g>
<g>
	<g>
		<path fill="#FFFFFF" d="M34.5,23.953c0,1.332,1.08,2.412,2.412,2.412s2.412-1.08,2.412-2.412c0-1.333-2.412-6.288-2.412-6.288
			S34.5,22.62,34.5,23.953z M38.511,13.324c0-0.883-0.717-1.599-1.599-1.599c-0.883,0-1.6,0.716-1.6,1.599
			c0,0.884,0.717,1.6,1.6,1.6C37.794,14.924,38.511,14.208,38.511,13.324z M26.272,16.066c-0.882,0-1.599,0.716-1.599,1.599
			s0.717,1.599,1.599,1.599s1.599-0.716,1.599-1.599S27.154,16.066,26.272,16.066z M47.981,16.066c-0.882,0-1.599,0.716-1.599,1.599
			s0.717,1.599,1.599,1.599c0.883,0,1.6-0.716,1.6-1.599S48.864,16.066,47.981,16.066z M19.581,24.622c-0.883,0-1.6,0.716-1.6,1.599
			c0,0.884,0.717,1.6,1.6,1.6c0.882,0,1.599-0.716,1.599-1.6C21.18,25.338,20.463,24.622,19.581,24.622z M54.635,24.622
			c-0.882,0-1.599,0.716-1.599,1.599c0,0.884,0.717,1.6,1.599,1.6c0.883,0,1.6-0.716,1.6-1.6
			C56.234,25.338,55.518,24.622,54.635,24.622z M61.963,25.712c-2.971-11.328-13.235-19.24-24.959-19.24h-0.002
			c-11.73,0.001-21.995,7.917-24.965,19.251c-0.274,1.051,0.356,2.127,1.407,2.402c0.167,0.044,0.334,0.065,0.499,0.065
			c0.873,0,1.671-0.587,1.903-1.471c2.514-9.604,11.214-16.312,21.155-16.313h0.002c9.937,0,18.635,6.704,21.154,16.304
			c0.274,1.053,1.353,1.68,2.402,1.404C61.611,27.839,62.24,26.763,61.963,25.712z"/>
	</g>
</g>
<g>
	<g>
		<path fill="#3D91ED" d="M34.5,23.953c0,1.332,1.08,2.412,2.412,2.412s2.412-1.08,2.412-2.412c0-1.333-2.412-6.288-2.412-6.288
			S34.5,22.62,34.5,23.953z M36.912,14.924c0.882,0,1.599-0.716,1.599-1.6c0-0.883-0.717-1.599-1.599-1.599
			c-0.883,0-1.6,0.716-1.6,1.599C35.313,14.208,36.029,14.924,36.912,14.924z M26.272,16.066c-0.882,0-1.599,0.716-1.599,1.599
			s0.717,1.599,1.599,1.599s1.599-0.716,1.599-1.599S27.154,16.066,26.272,16.066z M47.981,16.066c-0.882,0-1.599,0.716-1.599,1.599
			s0.717,1.599,1.599,1.599c0.883,0,1.6-0.716,1.6-1.599S48.864,16.066,47.981,16.066z M19.581,24.622c-0.883,0-1.6,0.716-1.6,1.599
			c0,0.884,0.717,1.6,1.6,1.6c0.882,0,1.599-0.716,1.599-1.6C21.18,25.338,20.463,24.622,19.581,24.622z M54.635,24.622
			c-0.882,0-1.599,0.716-1.599,1.599c0,0.884,0.717,1.6,1.599,1.6c0.883,0,1.6-0.716,1.6-1.6
			C56.234,25.338,55.518,24.622,54.635,24.622z"/>
	</g>
</g>
</svg>
