<?xml version="1.0" encoding="utf-8"?>
<!-- Generator: Adobe Illustrator 20.1.0, SVG Export Plug-In . SVG Version: 6.00 Build 0)  -->
<svg version="1.1" id="레이어_1" xmlns="http://www.w3.org/2000/svg" xmlns:xlink="http://www.w3.org/1999/xlink" x="0px"
	 y="0px" viewBox="0 0 595.3 841.9" style="enable-background:new 0 0 595.3 841.9;" xml:space="preserve">
<style type="text/css">
	.st0{clip-path:url(#SVGID_2_);}
	.st1{fill:url(#SVGID_3_);}
	.st2{fill:#1C2C57;}
</style>
<g>
	<defs>
		<path id="SVGID_1_" d="M151.4,373.3v47.4c-10-6.6-20.6-10.3-32.7-10.3l0,0c-12.1,0-22.7,3.7-32.7,10.3l0,0v-47.4H46.3v136h39.6
			v-44.1c7.1-10.7,19-17.3,32.7-17.3l0,0c13.7,0,25.6,6.6,32.7,17.3l0,0v44.1H191v-136H151.4z"/>
	</defs>
	<clipPath id="SVGID_2_">
		<use xlink:href="#SVGID_1_"  style="overflow:visible;"/>
	</clipPath>
	<g class="st0">
		
			<linearGradient id="SVGID_3_" gradientUnits="userSpaceOnUse" x1="0" y1="0" x2="1" y2="0" gradientTransform="matrix(0 -140.6809 -140.681 0 118.7821 513.1132)">
			<stop  offset="0" style="stop-color:#0D3484"/>
			<stop  offset="1" style="stop-color:#1A97BA"/>
		</linearGradient>
		<rect x="46.6" y="87.4" class="st1" width="422" height="422"/>
	</g>
</g>
<polygon class="st2" points="252.9,399.8 229.3,399.8 229.3,380 218.2,380 218.2,430.7 229.3,430.7 229.3,409.7 252.9,409.7 
	252.9,430.7 264,430.7 264,380 252.9,380 "/>
<path class="st2" d="M494,382.9c-2.3,2.4-2.4,5.9-2.5,7.9v39.9h11.1v-16.2h23.5v16.2h11.1V380h-34.6
	C499.4,380.1,496.3,380.6,494,382.9 M505.4,389.9h20.7v14.7h-23.5v-11.8c0-0.6-0.1-1.6,0.4-2.3C503.5,389.9,504.4,390,505.4,389.9"
	/>
<path class="st2" d="M415.5,380.1h-34.7v50.6h11.1v-40.8h20.8c1,0,1.9,0,2.4,0.6c0.5,0.6,0.4,1.7,0.4,2.3v37.9h11.1v-39.9
	c-0.1-2-0.2-5.5-2.5-7.9C421.8,380.6,418.8,380.1,415.5,380.1"/>
<path class="st2" d="M359.9,417.9c0,0.6,0.1,1.6-0.4,2.3c-0.5,0.7-1.4,0.6-2.4,0.6h-20.8V380h-11.1v50.6h34.7c3.3,0,6.4-0.5,8.7-2.9
	c2.3-2.4,2.4-5.8,2.5-7.9V380h-11.1V417.9z"/>
<path class="st2" d="M482.3,390.8c0-2-0.1-5.5-2.5-7.9c-2.3-2.4-5.4-2.9-8.7-2.9h-23.6h-11.1v50.6h34.7c3.3,0,6.4-0.5,8.7-2.9
	c2.3-2.4,2.4-5.8,2.5-7.9V390.8z M471.2,417.9c0,0.6,0.1,1.6-0.4,2.3c-0.5,0.7-1.4,0.6-2.4,0.6h-20.9v-30.8h20.9c1,0,1.9,0,2.4,0.6
	c0.5,0.6,0.4,1.7,0.4,2.3V417.9z"/>
<polygon class="st2" points="294.6,402.2 281.1,380.1 267.9,380.1 288.6,412 288.6,430.7 300.5,430.7 300.5,412 321.2,380.1 
	308,380.1 "/>
<polygon class="st2" points="548.4,380.1 548.4,389.9 548.4,420.8 548.4,430.7 560.2,430.7 560.2,420.8 560.2,389.9 560.2,380.1 "/>
<polygon class="st2" points="440.9,492.3 440.9,451.8 429.3,451.8 429.3,502.4 467.1,502.4 467.1,492.3 "/>
<polygon class="st2" points="338.1,462.3 368.2,462.3 368.2,451.8 326.6,451.8 326.6,502.4 368.2,502.4 368.2,491.9 338.1,491.9 
	338.1,481.9 364.3,481.9 364.3,472.4 338.1,472.4 338.1,472.3 "/>
<polygon class="st2" points="389.5,462.3 419.6,462.3 419.6,451.8 378,451.8 378,502.4 419.6,502.4 419.6,491.9 389.5,491.9 
	389.5,481.9 415.7,481.9 415.7,472.4 389.5,472.4 389.5,472.3 "/>
<path class="st2" d="M253.8,471.8H232c-1.9,0-2.8-1-2.8-2.9v-4.4c0-1.5,0.9-2.3,2.8-2.3h30.5v-10.5h-33.2c-7.4,0-11.1,3.6-11.1,10.7
	v9.4c0,6.9,3.5,10.4,10.6,10.4h21.7c1.9,0,2.8,1,2.8,2.9v4.5c0,1.5-0.9,2.3-2.8,2.3h-31.8v10.5h34.6c7.4,0,11.2-3.6,11.2-10.8v-9.4
	C264.4,475.3,260.9,471.8,253.8,471.8"/>
<polygon class="st2" points="271.6,451.8 271.6,462.3 288.8,462.3 288.8,502.4 300.3,502.4 300.3,462.3 317.5,462.3 317.5,451.8 "/>
</svg>
